<?xml version="1.0" encoding="UTF-8" standalone="no"?>
<svg
   xmlns:dc="http://purl.org/dc/elements/1.1/"
   xmlns:cc="http://creativecommons.org/ns#"
   xmlns:rdf="http://www.w3.org/1999/02/22-rdf-syntax-ns#"
   xmlns:svg="http://www.w3.org/2000/svg"
   xmlns="http://www.w3.org/2000/svg"
   xmlns:sodipodi="http://sodipodi.sourceforge.net/DTD/sodipodi-0.dtd"
   xmlns:inkscape="http://www.inkscape.org/namespaces/inkscape"
   width="430.91541mm"
   height="161.04976mm"
   viewBox="0 0 430.91541 161.04976"
   version="1.1"
   id="svg8"
   inkscape:version="1.0.1 (3bc2e813f5, 2020-09-07)"
   sodipodi:docname="logo.svg">
  <defs
     id="defs2">
    <clipPath
       clipPathUnits="userSpaceOnUse"
       id="clipPath849">
      <path
         d="M 0,1125 H 2436 V 0 H 0 Z"
         id="path847" />
    </clipPath>
  </defs>
  <sodipodi:namedview
     id="base"
     pagecolor="#ffffff"
     bordercolor="#666666"
     borderopacity="1.0"
     inkscape:pageopacity="0.0"
     inkscape:pageshadow="2"
     inkscape:zoom="0.49497475"
     inkscape:cx="1058.4783"
     inkscape:cy="377.43166"
     inkscape:document-units="mm"
     inkscape:current-layer="g845"
     inkscape:document-rotation="0"
     showgrid="false"
     inkscape:window-width="2400"
     inkscape:window-height="1271"
     inkscape:window-x="-9"
     inkscape:window-y="-9"
     inkscape:window-maximized="1" />
  <metadata
     id="metadata5">
    <rdf:RDF>
      <cc:Work
         rdf:about="">
        <dc:format>image/svg+xml</dc:format>
        <dc:type
           rdf:resource="http://purl.org/dc/dcmitype/StillImage" />
        <dc:title></dc:title>
      </cc:Work>
    </rdf:RDF>
  </metadata>
  <g
     inkscape:label="Warstwa 1"
     inkscape:groupmode="layer"
     id="layer1"
     transform="translate(153.46961,-28.332269)">
    <g
       id="g845"
       clip-path="url(#clipPath849)"
       transform="matrix(0.35277777,0,0,-0.35277777,-347.41535,322.73188)">
      <g
         id="g851"
         transform="translate(690.2695,619.8794)"
         style="fill:#f5cb5c;fill-opacity:1">
        <path
           d="m 0,0 c 32.306,-23.543 64.612,-47.086 96.92,-70.626 0.808,-0.588 1.643,-1.139 2.304,-1.595 0.374,0.123 0.468,0.131 0.532,0.179 63.724,47.714 127.446,95.432 191.168,143.149 0.273,0.205 0.558,0.395 0.844,0.582 0.066,0.044 0.158,0.057 0.241,0.068 0.079,0.011 0.167,0.019 0.241,-0.005 0.077,-0.025 0.142,-0.091 0.388,-0.259 0,-0.462 0.002,-1.044 0,-1.627 -0.052,-15.462 -0.182,-30.925 -0.094,-46.386 0.002,-0.344 -0.017,-0.669 -0.042,-0.989 6.091,4.489 12.202,8.953 18.322,13.403 7.005,5.095 14.03,10.166 21.081,15.197 v 59.108 c 0,6.834 0.031,13.669 -0.009,20.503 -0.04,6.748 0.175,13.504 -0.154,20.703 C 253.881,93.051 176.47,35.036 99.044,-22.991 58.813,6.388 18.673,35.421 -21.162,64.867 c -39.793,29.415 -79.28,59.244 -119.167,89.091 -0.074,-0.9 -0.137,-1.314 -0.138,-1.729 -0.005,-15.121 0.013,-30.242 -0.035,-45.362 -0.004,-1.361 0.479,-2.15 1.538,-2.945 15.414,-11.59 30.347,-23.802 45.947,-35.163 C -76.864,56.996 -61.245,44.499 -45.06,32.781 -30.015,21.888 -15.75,9.921 0,0"
           style="fill:#f5cb5c;fill-opacity:1;fill-rule:nonzero;stroke:none"
           id="path853" />
      </g>
      <g
         id="g855"
         transform="translate(1233.0889,783.0386)"
         style="fill:#f5cb5c;fill-opacity:1">
        <path
           d="m 0,0 c 0.005,-1.509 -0.463,-2.456 -1.69,-3.358 -70.451,-51.815 -140.877,-103.662 -211.307,-155.504 -19.107,-15.174 -39.277,-28.914 -58.746,-43.603 -19.473,-14.693 -39.214,-29.032 -58.836,-43.527 -37.408,-27.634 -74.816,-55.269 -112.226,-82.902 -0.627,-0.463 -1.272,-0.9 -1.95,-1.379 -0.461,0.298 -0.887,0.545 -1.283,0.833 -35.82,26.06 -71.657,52.095 -107.443,78.2 -12.39,9.038 -24.632,18.277 -36.994,27.352 -1.592,1.168 -2.241,2.363 -2.212,4.392 0.141,10.2 0.095,20.402 0.121,30.604 0.002,0.678 0.059,1.355 0.112,2.492 49.28,-36.122 98.209,-71.987 147.287,-107.961 5.006,3.555 10.045,6.932 14.87,10.591 39.504,29.958 79.464,59.299 119.447,88.611 30.317,22.226 60.876,44.131 90.894,66.753 35.662,26.874 71.741,53.178 107.64,79.728 36.763,27.187 73.64,54.219 110.471,81.315 0.493,0.363 1.029,0.67 1.783,1.156 0.05,-0.825 0.113,-1.364 0.112,-1.904 C 0.027,21.259 -0.03,10.63 0,0 M 7.605,19.455 C 7.601,29.416 7.623,39.379 7.729,49.339 7.732,50.053 7.744,50.767 7.751,51.48 7.66,51.416 7.569,51.351 7.48,51.286 -19.03,31.71 -45.53,12.123 -72.05,-7.44 c -17.106,-12.619 -34.243,-25.194 -51.359,-37.798 -17.059,-12.563 -34.168,-25.056 -51.144,-37.729 -17.016,-12.702 -34.241,-25.116 -51.091,-38.05 -16.856,-12.939 -34.227,-25.21 -51.367,-37.781 -28.298,-20.757 -56.655,-41.433 -84.867,-62.305 -25.746,-19.049 -51.33,-38.316 -76.996,-57.474 -1.988,-1.484 -4.058,-2.857 -6.153,-4.327 -52.226,38.281 -104.308,76.458 -156.844,114.967 0,-1.332 -10e-4,-2.085 0,-2.839 0.006,-17.621 0.063,-35.242 -0.046,-52.862 -0.015,-2.304 0.839,-3.779 2.479,-5.071 0.392,-0.31 0.789,-0.614 1.189,-0.912 14.945,-11.099 29.816,-22.301 44.852,-33.276 33.876,-24.728 67.832,-49.347 101.761,-74.001 2.249,-1.634 4.544,-3.203 6.967,-4.907 0.806,0.573 1.449,1.014 2.075,1.477 38.958,28.777 77.915,57.555 116.872,86.332 19.622,14.496 39.37,28.823 58.83,43.531 19.455,14.702 39.669,28.375 58.736,43.595 42.138,30.953 84.295,61.879 126.408,92.866 28.956,21.306 57.854,42.692 86.765,64.06 0.951,0.704 1.83,1.513 2.687,2.338 -0.086,9.02 -0.095,18.041 -0.099,27.061"
           style="fill:#f5cb5c;fill-opacity:1;fill-rule:nonzero;stroke:none"
           id="path857" />
      </g>
      <g
         id="g859"
         transform="translate(1021.8271,615.2334)"
         style="fill:#f5cb5c;fill-opacity:1">
        <path
           d="m 0,0 c -4.975,-3.65 -9.958,-7.288 -14.948,-10.917 -1.537,-1.118 -13.707,-9.785 -23.149,-16.497 v -208.84 h 37.969 c 0,1.837 -0.001,3.362 0,4.888 0.041,70.372 0.082,140.745 0.125,211.118 C 0,-13.499 -0.021,-6.749 0,0"
           style="fill:#f5cb5c;fill-opacity:1;fill-rule:nonzero;stroke:none"
           id="path861" />
      </g>
      <g
         id="g863"
         transform="translate(588.0049,378.6934)"
         style="fill:#f5cb5c;fill-opacity:1">
        <path
           d="m 0,0 h -37.969 v 193.649 c 0.993,-0.655 1.771,-1.132 2.509,-1.663 10.261,-7.381 20.478,-14.824 30.796,-22.124 3.301,-2.336 4.892,-5.282 4.835,-9.298 C 0.086,154.501 0.13,148.435 0.125,142.37 0.083,95.987 0.042,49.604 0,3.222 0,2.217 0,1.211 0,0"
           style="fill:#f5cb5c;fill-opacity:1;fill-rule:nonzero;stroke:none"
           id="path865" />
      </g>
      <g
         id="g867"
         transform="translate(550.0093,673.0054)"
         style="fill:#f5cb5c;fill-opacity:1">
        <path
           d="m 0,0 c 0.951,-0.645 1.65,-1.078 2.305,-1.569 11.346,-8.494 22.671,-17.017 34.049,-25.469 1.291,-0.958 1.87,-1.908 1.862,-3.575 -0.064,-15.199 -0.027,-30.398 -0.025,-45.597 0,-0.573 -0.049,-1.146 -0.09,-2.051 -0.82,0.512 -1.393,0.803 -1.891,1.191 -11.653,9.076 -23.292,18.172 -34.96,27.231 -0.952,0.738 -1.435,1.485 -1.432,2.748 0.042,15.114 0.026,30.229 0.033,45.343 0,0.472 0.078,0.943 0.149,1.748"
           style="fill:#f5cb5c;fill-opacity:1;fill-rule:nonzero;stroke:none"
           id="path869" />
      </g>
      <g
         id="g871"
         transform="translate(1110.0732,459.334)"
         style="fill:#f5cb5c;fill-opacity:1">
        <path
           d="M 0,0 H 42.209 L 21.354,57.298 h -0.497 z m 7.946,106.016 h 26.567 l 76.97,-186.79 H 73.991 l -19.615,48.211 h -65.797 l -19.616,-48.211 h -37.491 z"
           style="fill:#f5cb5c;fill-opacity:1;fill-rule:nonzero;stroke:none"
           id="path873" />
      </g>
      <g
         id="g875"
         transform="translate(1289.7881,476.9473)"
         style="fill:#f5cb5c;fill-opacity:1">
        <path
           d="m 0,0 h 119.926 v -4.039 c 0,-53.26 -45.936,-94.908 -97.331,-94.908 -52.638,0 -98.821,41.143 -98.821,97.18 0,55.028 45.935,97.182 97.828,97.182 46.181,0 79.702,-31.806 89.136,-58.561 H 70.019 c -7.946,12.368 -24.831,26.25 -49.162,26.25 -41.464,0 -63.066,-35.842 -63.066,-65.123 0,-28.523 21.104,-64.619 64.804,-64.619 22.593,0 43.699,12.62 54.375,34.328 H 0 Z"
           style="fill:#f5cb5c;fill-opacity:1;fill-rule:nonzero;stroke:none"
           id="path877" />
      </g>
      <g
         id="g879"
         transform="translate(1524.7139,410.3096)"
         style="fill:#f5cb5c;fill-opacity:1">
        <path
           d="m 0,0 c 35.01,0 62.073,30.037 62.073,64.619 0,35.843 -27.559,65.123 -62.073,65.123 -34.513,0 -62.073,-29.28 -62.073,-65.123 C -62.073,30.037 -35.009,0 0,0 m 0,162.052 c 52.142,0 96.089,-42.406 96.089,-97.686 C 96.089,10.854 52.886,-32.31 0,-32.31 c -52.887,0 -96.088,43.164 -96.088,96.676 0,55.28 43.946,97.686 96.088,97.686"
           style="fill:#f5cb5c;fill-opacity:1;fill-rule:nonzero;stroke:none"
           id="path881" />
      </g>
      <g
         id="g883"
         transform="translate(1639.418,565.3496)"
         style="fill:#f5cb5c;fill-opacity:1">
        <path
           d="m 0,0 h 34.016 v -80.774 h 0.497 L 91.868,0 h 39.974 L 62.569,-91.881 131.842,-186.79 H 91.868 l -57.355,82.036 H 34.016 V -186.79 H 0 Z"
           style="fill:#f5cb5c;fill-opacity:1;fill-rule:nonzero;stroke:none"
           id="path885" />
      </g>
    </g>
  </g>
</svg>
